<?xml version="1.0" encoding="UTF-8"?>
<svg id="Object" xmlns="http://www.w3.org/2000/svg" viewBox="0 0 777.29 499.09">
  <defs>
    <style>
      .cls-1 {
        fill: #616e7d;
      }

      .cls-2 {
        fill: #82bfab;
      }

      .cls-3 {
        fill: #aad4c8;
      }
    </style>
  </defs>
  <polygon class="cls-3" points="762.7 274.46 762.7 134.15 741.27 141.41 741.27 274.46 762.7 274.46"/>
  <path class="cls-1" d="m633.86,217.62l-240.02,81.39c-2.2.76-4.53,1.13-6.84,1.13s-4.66-.37-6.86-1.13l-240.01-81.39v201.29h.25l-.54,2.77c0,23.95,110.67,77.41,247.02,77.41s246.72-53.46,246.72-77.41l-.56-2.77h.85v-201.29Z"/>
  <polygon class="cls-1" points="140.12 177.85 387 261.56 633.86 177.85 741.27 141.41 762.7 134.15 773.98 130.32 387 0 0 130.32 140.12 177.85"/>
  <path class="cls-3" d="m726.68,307.34v81.92c0,13.98,11.32,25.3,25.31,25.3s25.3-11.33,25.3-25.3v-81.92c0-6.92-2.79-13.19-7.28-17.75h-36.03c-4.5,4.56-7.3,10.83-7.3,17.75Z"/>
  <polygon class="cls-2" points="730.74 274.46 730.74 289.58 733.97 289.58 770.01 289.58 773.22 289.58 773.22 274.46 762.7 274.46 741.27 274.46 730.74 274.46"/>
</svg>